<svg xmlns="http://www.w3.org/2000/svg" viewBox="0 0 1024 1024" width="1024" height="1024">
  <defs>
    <linearGradient id="bg3" x1="0%" y1="0%" x2="100%" y2="100%">
      <stop offset="0%" style="stop-color:#0284c7"/>
      <stop offset="100%" style="stop-color:#0369a1"/>
    </linearGradient>
  </defs>

  <!-- Background -->
  <rect width="1024" height="1024" rx="224" fill="url(#bg3)"/>

  <!-- Large "D" letterform built from a water drop shape -->
  <path d="M512 170 C512 170 270 460 270 610 C270 748 378 854 512 854 C646 854 754 748 754 610 C754 460 512 170 512 170Z"
        fill="white" opacity="0.15"/>

  <!-- Clean water drop centered -->
  <path d="M512 210 C512 210 320 470 320 600 C320 716 406 800 512 800 C618 800 704 716 704 600 C704 470 512 210 512 210Z"
        fill="white"/>

  <!-- Inner highlight -->
  <ellipse cx="462" cy="510" rx="48" ry="80" fill="#e0f2fe" opacity="0.6" transform="rotate(-20 462 510)"/>

  <!-- Small heart at the bottom of drop (care symbol) -->
  <path d="M512 680 C512 680 472 648 472 628 C472 614 482 604 492 604 C502 604 512 614 512 614 C512 614 522 604 532 604 C542 604 552 614 552 628 C552 648 512 680 512 680Z"
        fill="#0284c7" opacity="0.6"/>

  <!-- Text: DH -->
  <text x="512" y="920" text-anchor="middle" font-family="system-ui, -apple-system, sans-serif"
        font-size="80" font-weight="700" fill="white" opacity="0.9">DH</text>
</svg>
